# xmcd
#
# Track frame offsets: 
#        150
#        36149
#        86352
#        162789
#        181048
#        220406
#
# Disc length: 3638 seconds
#
# Revision: 1
# Processed by: cddbd v1.5.2PL0 Copyright (c) Steve Scherf et al.
# Submitted via: ExactAudioCopy v0.99pb4
#
DISCID=410e3406
DTITLE=Derek Bailey - Visitors Book
DYEAR=2001
DGENRE=Avantgarde
TTITLE0=With Antoine Berthiaume - Electric Guitar
TTITLE1=With Ingar Zach - Percussion
TTITLE2=With Tony Bevan - Bass Saxophone
TTITLE3=With Will Gaines - Tap Dance
TTITLE4=With Oren Marshall - Tuba and John Butcher - Tenor Saxophone 
TTITLE5=With Sonic Pleasure - Bricks, THF Drenching - Dictaphone and A
TTITLE5=lex Ward - Clarinet 
EXTD=
EXTT0=
EXTT1=
EXTT2=
EXTT3=
EXTT4=
EXTT5=
PLAYORDER=
